<?xml version="1.0" standalone="no"?>
<!DOCTYPE svg PUBLIC "-//W3C//DTD SVG 20010904//EN"
 "http://www.w3.org/TR/2001/REC-SVG-20010904/DTD/svg10.dtd">
<svg version="1.0" xmlns="http://www.w3.org/2000/svg"
 width="150.000000pt" height="150.000000pt" viewBox="0 0 150.000000 150.000000"
 preserveAspectRatio="xMidYMid meet">
<metadata>
Created by potrace 1.11, written by Peter Selinger 2001-2013
</metadata>
<g transform="translate(0.000000,150.000000) scale(0.100000,-0.100000)"
fill="#000000" stroke="none">
<path d="M952 1088 c-44 -15 -96 -65 -111 -107 -17 -53 -14 -122 10 -166 33
-63 69 -86 196 -126 105 -33 133 -91 74 -150 -29 -28 -36 -31 -93 -31 -42 -1
-84 36 -99 87 -12 39 -17 45 -34 41 -11 -3 -35 -6 -52 -6 -28 0 -33 -4 -33
-25 0 -45 40 -133 75 -163 46 -41 96 -55 174 -50 71 5 125 27 154 62 65 78 65
226 -1 299 -17 20 -103 67 -121 67 -24 0 -123 44 -140 61 -24 26 -16 67 19 88
60 36 160 -4 160 -63 0 -21 4 -25 23 -22 12 3 39 5 61 5 l38 1 -7 37 c-14 75
-58 133 -120 157 -34 13 -138 15 -173 4z"/>
<path d="M269 1078 c0 -7 -1 -163 -2 -346 l-2 -333 168 2 c180 1 214 8 254 51
55 58 66 188 22 252 -13 19 -34 40 -48 46 l-24 11 21 22 c78 83 63 228 -28
281 -29 18 -56 21 -197 24 -130 3 -163 1 -164 -10z m309 -128 c23 -22 28 -54
13 -93 -13 -33 -33 -40 -127 -42 l-82 -2 -1 78 -1 79 88 0 c75 0 92 -3 110
-20z m-7 -262 c50 -17 65 -98 27 -142 -20 -23 -31 -26 -93 -27 -38 -1 -82 -1
-97 0 l-28 1 0 90 0 90 83 -2 c45 -1 94 -5 108 -10z"/>
</g>
</svg>
